<svg width="450" height="127" viewBox="0 0 434 127" fill="none" xmlns="http://www.w3.org/2000/svg">
<path xmlns="http://www.w3.org/2000/svg" fill="#91bbdb" d="m53.328125 95.643036l-24.0 0l0 -74.65625l-28.0 0l0 -18.671875l80.0 0l0 18.671875l-28.0 0l0 74.65625z" fill-rule="nonzero"/>
<path xmlns="http://www.w3.org/2000/svg" fill="#91bbdb" d="m132.39157 44.31491q-8.390625 0 -17.328125 4.0l0 47.328125l-23.328125 0l0 -70.65625l20.65625 0l1.34375 8.656248q11.453125 -9.999998 24.0 -9.999998l6.0 0l0 20.671873l-11.34375 0z" fill-rule="nonzero"/>
<path xmlns="http://www.w3.org/2000/svg" fill="#91bbdb" d="m183.46626 78.31491q7.0625 0 16.0 -2.671875l0 -8.0l-19.34375 0q-2.0 0 -3.328125 1.34375q-1.328125 1.328125 -1.328125 3.328125l0 1.328125q0 2.0 1.328125 3.34375q1.328125 1.328125 3.328125 1.328125l3.34375 0zm-24.671875 -52.0q24.40625 -2.671875 44.0 -2.671875q9.0625 0 14.53125 5.46875q5.46875 5.468748 5.46875 14.531248l0 52.0l-20.671875 0l-1.328125 -6.671875q-6.265625 4.140625 -12.875 6.078125q-6.59375 1.9218826 -11.125 1.9218826l-4.671875 0q-9.0625 0 -14.53125 -5.4531326q-5.46875 -5.46875 -5.46875 -14.546875l0 -6.0q0 -9.0625 5.46875 -14.53125q5.46875 -5.46875 14.53125 -5.46875l27.34375 0l0 -5.328125q0 -2.0 -1.34375 -3.328125q-1.328125 -1.34375 -3.328125 -1.34375q-8.671875 0 -19.140625 0.8125q-10.453125 0.796875 -16.859375 1.1875l0 -16.656248z" fill-rule="nonzero"/>
<path xmlns="http://www.w3.org/2000/svg" fill="#91bbdb" d="m266.52463 27.643038l0 68.0l-23.328125 0l0 -50.0l-10.0 0l0 -17.999998l33.328125 0zm-23.328125 -26.65625l23.328125 0l0 18.65625l-23.328125 0l0 -18.65625z" fill-rule="nonzero"/>
<path xmlns="http://www.w3.org/2000/svg" fill="#91bbdb" d="m321.5896 42.97116q-7.0625 0 -16.0 2.671875l0 50.0l-23.328125 0l0 -70.65625l20.65625 0l1.34375 6.65625q6.265625 -4.125 12.859375 -6.0625q6.59375 -1.9375 11.140625 -1.9375l6.0 0q9.0625 0 14.515625 5.46875q5.46875 5.468748 5.46875 14.531248l0 52.0l-23.328125 0l0 -48.0q0 -2.0 -1.328125 -3.328125q-1.328125 -1.34375 -3.328125 -1.34375l-4.671875 0z" fill-rule="nonzero"/>
<path xmlns="http://www.w3.org/2000/svg" fill="#91bbdb" d="m387.31445 119.64304q-7.0625 0 -17.328125 -1.328125l0 -17.34375l12.0 0q5.0625 0 6.59375 -2.796875q1.53125 -2.7968826 -0.59375 -7.8593826l-27.328125 -65.328125l24.65625 0l16.671875 45.328125l14.0 -45.328125l24.65625 0l-26.65625 73.32813q-3.875 10.53125 -10.015625 15.921875q-6.125 5.40625 -16.65625 5.40625z" fill-rule="nonzero"/>
</svg>
