<svg width="503.6500244140625px" height="213.20498046875px" xmlns="http://www.w3.org/2000/svg" viewBox="-1.82501220703125 -31.602490234374997 503.6500244140625 213.20498046875" style="background: rgba(0, 0, 0, 0);" preserveAspectRatio="xMidYMid"><defs><filter id="editing-extrusion" x="-100%" y="-100%" width="300%" height="300%"><feFlood result="color1" flood-color="#444444"></feFlood><feConvolveMatrix order="1,1" divisor="1" kernelMatrix="1" in="SourceAlpha" result="extrude"></feConvolveMatrix><feComposite in="color1" in2="extrude" result="comp-extrude" operator="in"></feComposite><feOffset dx="0.5" dy="0.5" in="comp-extrude" result="offset-extrude"></feOffset><feMerge><feMergeNode in="offset-extrude"></feMergeNode><feMergeNode in="SourceGraphic"></feMergeNode></feMerge></filter></defs><g filter="url(#editing-extrusion)"><g transform="translate(69.36500120162964, 124.54999923706055)"><path d="M35.27-11.87L35.27-11.87L42.77-12.52L44.79-12.52L44.79-12.52Q46.27-12.52 47.22-11.59L47.22-11.59L47.22-11.59Q48.18-10.66 48.18-9.19L48.18-9.19L48.18-3.34L48.18-3.34Q48.18-2.13 47.22-1.18L47.22-1.18L47.22-1.18Q46.27-0.22 44.79 0L44.79 0L44.79 0Q39.21 1.09 30.24 1.09L30.24 1.09L30.24 1.09Q6.73 1.09 6.73-23.52L6.73-23.52L6.73-75.03L6.73-75.03Q6.73-76.51 7.68-77.46L7.68-77.46L7.68-77.46Q8.64-78.42 10.06-78.42L10.06-78.42L22.31-78.42L22.31-78.42Q23.73-78.42 24.69-77.46L24.69-77.46L24.69-77.46Q25.65-76.51 25.65-75.03L25.65-75.03L25.65-56.77L40.91-56.77L40.91-56.77Q42.33-56.77 43.29-55.84L43.29-55.84L43.29-55.84Q44.24-54.91 44.24-53.43L44.24-53.43L44.24-46.92L44.24-46.92Q44.24-45.45 43.29-44.52L43.29-44.52L43.29-44.52Q42.33-43.59 40.91-43.59L40.91-43.59L25.65-43.59L25.65-23.52L25.65-23.52Q25.65-17.94 28.27-14.90L28.27-14.90L28.27-14.90Q30.90-11.87 35.27-11.87ZM100.35-46.05L98.60-46.05L90.18-46.38L90.18-46.38Q82.80-46.38 76.07-38.28L76.07-38.28L76.07-3.34L76.07-3.34Q76.07-1.86 75.11-0.93L75.11-0.93L75.11-0.93Q74.16 0 72.73 0L72.73 0L60.48 0L60.48 0Q59.01 0 58.08-0.93L58.08-0.93L58.08-0.93Q57.15-1.86 57.15-3.34L57.15-3.34L57.15-56.55L57.15-56.55Q57.15-58.02 58.11-58.98L58.11-58.98L58.11-58.98Q59.06-59.94 60.48-59.94L60.48-59.94L72.73-59.94L72.73-59.94Q74.21-59.94 75.14-58.98L75.14-58.98L75.14-58.98Q76.07-58.02 76.07-56.55L76.07-56.55L76.07-53.10L76.07-53.10Q81.65-57.15 86.82-59.09L86.82-59.09L86.82-59.09Q91.98-61.03 100.35-61.03L100.35-61.03L100.35-61.03Q101.83-61.03 102.79-60.07L102.79-60.07L102.79-60.07Q103.74-59.12 103.74-57.70L103.74-57.70L103.74-49.38L103.74-49.38Q103.74-47.91 102.79-46.98L102.79-46.98L102.79-46.98Q101.83-46.05 100.35-46.05L100.35-46.05ZM114.32-3.94L114.32-3.94L114.32-3.94Q107.08-8.97 107.08-18.16L107.08-18.16L107.08-18.16Q107.08-27.34 114.32-32.27L114.32-32.27L114.32-32.27Q121.57-37.19 133-37.19L133-37.19L151.10-37.19L151.10-37.19Q151.10-43.59 148.42-46.10L148.42-46.10L148.42-46.10Q145.74-48.62 139.04-48.62L139.04-48.62L139.04-48.62Q132.34-48.62 129.64-45.31L129.64-45.31L129.64-45.31Q126.93-42 122.99-42L122.99-42L114.84-42L114.84-42Q113.37-42 112.41-42.96L112.41-42.96L112.41-42.96Q111.45-43.91 111.45-45.34L111.45-45.34L111.45-45.34Q111.45-61.03 141.26-61.03L141.26-61.03L141.26-61.03Q154.27-61.03 162.15-55.21L162.15-55.21L162.15-55.21Q170.02-49.38 170.02-37.19L170.02-37.19L170.02-3.34L170.02-3.34Q170.02-1.86 169.09-0.93L169.09-0.93L169.09-0.93Q168.16 0 166.69 0L166.69 0L156.13 0L156.13 0Q154.66 0 153.73-0.96L153.73-0.96L153.73-0.96Q152.80-1.91 152.80-3.34L152.80-3.34L152.80-5.03L152.80-5.03Q144.16 1.15 132.86 1.12L132.86 1.12L132.86 1.12Q121.57 1.09 114.32-3.94ZM134.31-24.77L134.31-24.77Q130.48-24.77 128.27-22.91L128.27-22.91L128.27-22.91Q126.05-21.05 126.05-18.10L126.05-18.10L126.05-18.10Q126.05-15.15 128.35-13.23L128.35-13.23L128.35-13.23Q130.65-11.32 134.86-11.32L134.86-11.32L134.86-11.32Q143.28-11.32 151.10-16.24L151.10-16.24L151.10-24.77L134.31-24.77ZM183.48-71.37L183.48-71.37L183.48-73.23L183.48-73.23Q183.48-76.13 185.14-77.82L185.14-77.82L185.14-77.82Q186.81-79.52 189.77-79.52L189.77-79.52L196.55-79.52L196.55-79.52Q199.45-79.52 201.14-77.85L201.14-77.85L201.14-77.85Q202.84-76.18 202.84-73.23L202.84-73.23L202.84-71.37L202.84-71.37Q202.84-68.47 201.17-66.77L201.17-66.77L201.17-66.77Q199.50-65.08 196.55-65.08L196.55-65.08L189.77-65.08L189.77-65.08Q186.87-65.08 185.17-66.77L185.17-66.77L185.17-66.77Q183.48-68.47 183.48-71.37ZM183.70-3.34L183.70-3.34L183.70-55.23L183.70-55.23Q183.70-56.71 184.65-57.64L184.65-57.64L184.65-57.64Q185.61-58.57 187.03-58.57L187.03-58.57L199.28-58.57L199.28-58.57Q200.76-58.57 201.69-57.61L201.69-57.61L201.69-57.61Q202.62-56.66 202.62-55.23L202.62-55.23L202.62-3.34L202.62-3.34Q202.62-1.86 201.66-0.93L201.66-0.93L201.66-0.93Q200.70 0 199.28 0L199.28 0L187.03 0L187.03 0Q185.55 0 184.63-0.93L184.63-0.93L184.63-0.93Q183.70-1.86 183.70-3.34ZM216.29-3.34L216.29-3.34L216.29-56.55L216.29-56.55Q216.29-58.02 217.25-58.98L217.25-58.98L217.25-58.98Q218.20-59.94 219.63-59.94L219.63-59.94L231.88-59.94L231.88-59.94Q233.30-59.94 234.25-58.98L234.25-58.98L234.25-58.98Q235.21-58.02 235.21-56.55L235.21-56.55L235.21-53.10L235.21-53.10Q244.62-61.03 255.25-61.03L255.25-61.03L255.25-61.03Q265.89-61.03 272.56-54.55L272.56-54.55L272.56-54.55Q279.23-48.07 279.23-34.73L279.23-34.73L279.23-3.34L279.23-3.34Q279.23-1.91 278.28-0.96L278.28-0.96L278.28-0.96Q277.32 0 275.84 0L275.84 0L263.65 0L263.65 0Q262.23 0 261.27-0.96L261.27-0.96L261.27-0.96Q260.31-1.91 260.31-3.34L260.31-3.34L260.31-34.73L260.31-34.73Q260.31-47.80 249.87-47.80L249.87-47.80L249.87-47.80Q243.03-47.80 235.21-39.98L235.21-39.98L235.21-3.34L235.21-3.34Q235.21-1.91 234.25-0.96L234.25-0.96L234.25-0.96Q233.30 0 231.88 0L231.88 0L219.63 0L219.63 0Q218.20 0 217.25-0.96L217.25-0.96L217.25-0.96Q216.29-1.91 216.29-3.34ZM301.22 5.69L303.24 5.69L310.41 6.62L310.41 6.62Q318.12 6.62 321.18-4.70L321.18-4.70L321.18-4.70Q311.88-4.70 305.65-10.31L305.65-10.31L305.65-10.31Q299.41-15.91 294.93-30.24L294.93-30.24L286.78-56.66L286.78-56.66Q286.62-57.09 286.62-57.67L286.62-57.67L286.62-57.67Q286.62-58.24 287.30-59.06L287.30-59.06L287.30-59.06Q287.98-59.88 289.35-59.94L289.35-59.94L300.78-59.94L300.78-59.94Q302.37-59.94 303.82-58.87L303.82-58.87L303.82-58.87Q305.27-57.80 305.70-56.22L305.70-56.22L312.87-33.03L312.87-33.03Q315.55-24.50 318.31-21.22L318.31-21.22L318.31-21.22Q321.07-17.94 324.84-17.94L324.84-17.94L335.73-56.22L335.73-56.22Q336.16-57.80 337.45-58.87L337.45-58.87L337.45-58.87Q338.73-59.94 340.32-59.94L340.32-59.94L351.86-59.94L351.86-59.94Q353.23-59.94 353.88-59.06L353.88-59.06L353.88-59.06Q354.54-58.19 354.54-57.61L354.54-57.61L354.54-57.61Q354.54-57.04 354.43-56.66L354.43-56.66L340.10-5.58L340.10-5.58Q336.27 7.98 330.61 13.78L330.61 13.78L330.61 13.78Q324.95 19.58 316.04 19.58L316.04 19.58L316.04 19.58Q307.13 19.58 303.43 18.92L303.43 18.92L303.43 18.92Q299.74 18.27 298.81 17.31L298.81 17.31L298.81 17.31Q297.88 16.35 297.88 15.09L297.88 15.09L297.88 9.08L297.88 9.08Q297.88 7.60 298.81 6.64L298.81 6.64L298.81 6.64Q299.74 5.69 301.22 5.69L301.22 5.69Z" fill="#ccc"></path></g></g><style>text {
  font-size: 64px;
  font-family: Arial Black;
  dominant-baseline: central;
  text-anchor: middle;
}</style></svg>